<?xml version="1.0" encoding="utf-8"?>
<!-- Generator: Adobe Illustrator 25.0.0, SVG Export Plug-In . SVG Version: 6.00 Build 0)  -->
<svg version="1.1" id="svg45829" xmlns:svg="http://www.w3.org/2000/svg"
	 xmlns="http://www.w3.org/2000/svg" xmlns:xlink="http://www.w3.org/1999/xlink" x="0px" y="0px" viewBox="0 0 512 512"
	 style="enable-background:new 0 0 512 512;" xml:space="preserve">
<style type="text/css">
	.st0{fill:none;stroke:#FFFFFF;stroke-width:10;stroke-miterlimit:10;}
	.st1{fill:#FFFFFF;}
	.st2{font-family:'ArialMT';}
	.st3{font-size:202.7338px;}
</style>
<path class="st0" d="M256,16c-61.8,0-112,50.2-112,112s50.3,112,112,112c61.8,0,112-50.3,112-112S317.8,16,256,16L256,16z"/>
<path class="st0" d="M458.8,217.6c-9.7,0-19.4,3.7-26.8,11.1c-16.9,16.9-33.8,33.8-50.7,50.7c6.6,9.2,10.6,20.5,10.6,32.7
	c0,30.9-25.1,56-56,56h-87.2c-11.6,1-11.6-17,0-15.9H336c22.3,0,40-17.7,40-40c0-7.8-2.3-15-6.1-21.2c-7.1-11.1-19.5-18.6-33.9-18.8
	H168c-34,0-52.9,17.6-68.7,33.3l111.1,111.1c1.7-0.3,3.5-0.5,5.6-0.5h136c27.5,0,50.5-13.6,66.7-37.1c18.3-26.5,52.6-76.2,67.8-97.7
	c5.5-7.8,9.1-16.8,9.4-26.1c0.3-9.3-2.9-19-10.3-26.4C478.3,221.3,468.6,217.6,458.8,217.6L458.8,217.6z"/>
<path class="st0" d="M72,304c-2,0-4.1,0.8-5.6,2.3l-48,48c-3.1,3.1-3.1,8.2,0,11.3l128,128c3.1,3.1,8.2,3.1,11.3,0l48-48
	c3.1-3.1,3.1-8.2,0-11.3l-128-128C76.1,304.8,74,304,72,304z"/>
<text transform="matrix(1 0 0 1 200.001 198.835)" class="st1 st2 st3">₹</text>
</svg>
